<?xml version="1.0" encoding="UTF-8"?>
<svg version="1.1" viewBox="0 0 1600 1600" width="1280" height="1280" xmlns="http://www.w3.org/2000/svg">
<path transform="translate(0)" d="m0 0h1600v1600h-1600v-1600z" fill="#FDFDFD"/>
<path transform="translate(175 1134)" d="m0 0c0.887-0.00153 1.77-0.00305 2.69-0.00463 2.99-0.00392 5.99-6.76e-4 8.98 0.00249 2.17-0.00135 4.34-0.00313 6.51-0.00531 6-0.00475 12-0.00322 18-7.22e-4 5.84 0.00146 11.7-0.00177 17.5-0.00487 12.1-0.00624 24.2-0.0077 36.3-0.00658 12.3 0.00112 24.5 9.39e-5 36.8-0.00357 0.774-2.3e-4 1.55-4.59e-4 2.34-6.96e-4 3.15-9.42e-4 6.3-0.0019 9.45-0.00287 32.9-0.0102 65.8-0.0132 98.7-0.0138 3.54-6.47e-5 7.08-1.33e-4 10.6-2.03e-4 1.32-2.55e-5 1.32-2.55e-5 2.66-5.15e-5 19.5-4.08e-4 38.9-0.0026 58.4-0.0051 8.01-0.00103 16-0.00202 24-0.00302 0.885-1.11e-4 1.77-2.21e-4 2.68-3.35e-4 50.7-0.00633 101-0.0104 152-0.00999 1.9 1.58e-5 3.8 3.15e-5 5.7 4.72e-5 8.57 7.34e-5 17.1 1.62e-4 25.7 2.54e-4 3.82 4.11e-5 7.65 8.13e-5 11.5 1.21e-4 1.91 2.04e-5 3.83 4.14e-5 5.74 6.31e-5 60.5 6.8e-4 121-0.00664 182-0.0205 15.3-0.0035 30.5-0.00697 45.8-0.0103 0.939-2.03e-4 1.88-4.06e-4 2.85-6.15e-4 28.9-0.00621 57.9-0.00998 86.8-0.0112 1.36-5.99e-5 1.36-5.99e-5 2.75-1.21e-4 19.9-8.53e-4 39.9-0.00111 59.8-8.3e-4 7.13 9.65e-5 14.3 1.49e-4 21.4 1.79e-4 1.77 7.91e-6 3.55 1.81e-5 5.32 3.06e-5 28.3 1.77e-4 56.6-0.00553 84.9-0.0142 28.5-0.00864 57-0.0109 85.5-0.00424 3.93 9.12e-4 7.86 0.00176 11.8 0.00256 0.771 1.6e-4 1.54 3.2e-4 2.34 4.85e-4 12.2 0.00236 24.5-0.00202 36.7-0.00916 12-0.00687 24-0.00667 36 0.00119 6.43 0.00391 12.9 0.00457 19.3-0.00346 5.84-0.00723 11.7-0.0054 17.5 0.00392 2.11 0.00173 4.22 5.17e-5 6.33-0.0053 2.85-0.00675 5.69-0.00134 8.54 0.00727 0.826-0.0049 1.65-0.0098 2.5-0.0148 4.17 0.0266 6.3 0.35 10.1 2.26v259c-128 1.17-128 1.17-191 1.14-2.32-5.73e-4 -4.63-0.00106-6.95-0.00148-3.63-6.67e-4 -7.26-0.00138-10.9-0.00236-12.2-0.00322-24.3-8.49e-4 -36.5 0.00175-24.4 0.0052-48.7 0.00569-73.1 0.00285-23.4-0.00272-46.8-0.00374-70.3-0.00248-1.49 7.75e-5 -2.98 1.55e-4 -4.47 2.31e-4 -5.99 3.11e-4 -12 6.29e-4 -18 9.6e-4 -16.7 9.16e-4 -33.4 0.00149-50.2 0.00179-0.76 1.36e-5 -1.52 2.73e-5 -2.3 4.14e-5 -24.1 4.07e-4 -48.2-7.08e-4 -72.4-0.00289-0.779-7.02e-5 -1.56-1.4e-4 -2.36-2.13e-4 -12.6-0.00114-25.3-0.00236-37.9-0.00359-50.1-0.00486-100-0.00462-150 2.31e-4 -12.7 0.00122-25.3 0.00243-38 0.00357-0.78 7.04e-5 -1.56 1.41e-4 -2.36 2.13e-4 -24.1 0.00216-48.2 0.00307-72.3 0.00264-0.76-1.36e-5 -1.52-2.72e-5 -2.3-4.12e-5 -16.7-3.13e-4 -33.4-9.47e-4 -50.1-0.00187-5.97-3.29e-4 -11.9-6.42e-4 -17.9-9.51e-4 -1.49-7.74e-5 -2.97-1.56e-4 -4.46-2.36e-4 -23.4-0.00126-46.8 1.31e-4 -70.2 0.00285-24.3 0.00279-48.6 0.00168-72.9-0.00353-12.7-0.00264-25.4-0.00383-38.1-3.51e-4 -47.3 0.0121-94.6-0.0537-142-0.547-3.03-0.0312-6.06-0.0609-9.09-0.0903-4.67-0.0459-9.33-0.0973-14-0.154-1.7-0.02-3.41-0.0383-5.11-0.055-2.31-0.0232-4.62-0.0525-6.93-0.0837-1.29-0.0152-2.58-0.0303-3.91-0.0459-2.85-0.157-2.85-0.157-3.85-1.16-1.88-10.6-1.14-21.8-1.13-32.5-0.00136-2.17-0.00314-4.35-0.00531-6.52-0.00455-5.88-0.0028-11.8 3.79e-4 -17.6 0.00254-6.18 1.81e-4 -12.4-0.00139-18.5-0.00182-10.4 5.73e-4 -20.8 0.00534-31.2 0.00543-12 0.00369-23.9-0.00183-35.9-0.00456-10.3-0.00517-20.6-0.00256-30.9 0.00155-6.14 0.0018-12.3-0.00154-18.4-0.00292-5.78-8.25e-4 -11.6 0.00489-17.4 0.00131-2.1 9.72e-4 -4.21-0.00126-6.31-0.0103-10.7 0.107-21.4 0.516-32.1 0.0304-0.945 0.0607-1.89 0.092-2.86 0.0381-0.868 0.0762-1.74 0.115-2.63 0.0306-0.766 0.0612-1.53 0.0927-2.32 0.317-1.88 0.317-1.88 2.32-3.88 4.49-1.33 9.11-1.14 13.8-1.13z" fill="#000100"/>
<path transform="translate(297 539)" d="m0 0c0.712-0.00383 1.42-0.00767 2.16-0.0116 2.41-0.00926 4.82 0.00304 7.23 0.0151 1.74-0.00222 3.49-0.00575 5.23-0.0105 4.83-0.00925 9.65 3.56e-4 14.5 0.0128 5.24 0.0103 10.5 0.0032 15.7-0.00173 9.19-0.00624 18.4-0.00127 27.6 0.0109 13.7 0.0181 27.3 0.019 41 0.0164 23-0.00395 46 0.00608 68.9 0.0241 22.8 0.0178 45.5 0.0293 68.3 0.0326 0.707 1.03e-4 1.41 2.06e-4 2.14 3.13e-4 6.45 9.4e-4 12.9 0.0018 19.4 0.00257 16 0.00192 32.1 0.0048 48.1 0.00833 1.1 2.4e-4 1.1 2.4e-4 2.21 4.85e-4 35.6 0.00787 71.1 0.0268 107 0.0466 12.3 0.00687 24.7 0.0137 37 0.0203 0.765 4.11e-4 1.53 8.22e-4 2.32 0.00124 35.6 0.019 71.1 0.0302 107 0.0394 2.31 5.94e-4 4.62 0.00119 6.93 0.00179 15.3 0.00396 30.6 0.00778 45.9 0.0115 30.4 0.00743 60.9 0.0157 91.3 0.0244 1.45 4.18e-4 2.9 8.35e-4 4.35 0.00125 84.6 0.0243 169 0.0644 289 0.126 28.3 56.6 1 127 1 190-126 0.33-253 0.66-383 1-3.11 32.4-3.11 32.4 4.81 55.8 2.39 3.87 4.62 7.8 6.82 11.8 2.4 4.32 4.86 8.62 7.31 12.9 0.749 1.32 0.749 1.32 1.51 2.66 3.02 5.28 6.1 10.5 9.24 15.7 1.48 2.49 2.88 5.01 4.24 7.57 2.7 5 5.54 9.9 8.41 14.8 1.81 3.1 3.56 6.24 5.29 9.39 1.66 2.97 3.35 5.93 5.05 8.88 3.2 5.57 6.33 11.2 9.44 16.8 3.5 6.33 7.09 12.6 10.9 18.8 2.98 4.88 5.91 9.78 8.62 14.8 3.06 5.67 6.24 11.3 9.44 16.9 0.507 0.891 1.01 1.78 1.54 2.7 2.23 3.9 4.48 7.78 6.9 11.6 2.49 3.94 4.7 8 6.92 12.1 6.99 12.9 14.1 25.8 21.9 38.3 2.12 3.45 4.05 6.98 5.96 10.5 2.15 4 4.36 7.97 6.56 11.9 0.426 0.77 0.853 1.54 1.29 2.33 2.04 3.67 4.1 7.33 6.22 10.9 0.368 0.631 0.736 1.26 1.12 1.91 0.994 1.7 2 3.39 3 5.08 1.5 2.92 1.5 2.92 2.5 7.92h-569c-1.07-4.29-1.04-4.66 0.938-8.25l1.15-2.14c0.3-0.531 0.601-1.06 0.91-1.61h2c0.247-0.846 0.495-1.69 0.75-2.56 1.07-2.95 2.34-5.43 3.91-8.13 1.7-2.92 3.35-5.86 5.02-8.8 1.04-1.84 2.09-3.67 3.13-5.5 0.709-1.25 1.42-2.5 2.12-3.75 3.73-6.6 7.53-13.1 11.8-19.3 1.79-2.73 3.18-5.59 4.57-8.54 2.43-5.03 5.08-9.86 8-14.6 3.3-5.39 6.45-10.8 9.5-16.4 7.63-13.8 15.5-27.5 23.5-41.1 3.52-5.96 6.85-12 10.2-18.1 2.08-3.76 4.2-7.4 6.66-10.9 2.79-4.01 4.86-8.27 6.99-12.7 4.25-8.64 9.38-16.8 14.6-24.9 1.67-2.64 3.08-5.32 4.44-8.12 2.73-5.59 5.9-10.9 9.08-16.2 2.96-4.97 5.76-10 8.5-15.1 1.59-2.85 3.41-5.52 5.24-8.23 0.454-0.908 0.908-1.82 1.38-2.75 1.63-3.25 1.63-3.25 3.11-5.5 0.541-0.825 1.08-1.65 1.64-2.5 0.777-1.14 0.777-1.14 1.57-2.3 3.97-9 2.46-20.6 2.44-30.3-0.00541-2.71-1.64e-6 -5.43 0.00635-8.14-6.6e-4 -1.73-0.00194-3.45-0.00391-5.18 0.00304-1.22 0.00304-1.22 0.00613-2.46 0.0835-4.09 0.0835-4.09-1.14-7.92-0.799-0.00174-1.6-0.00347-2.42-0.00526-47.3-0.103-94.7-0.211-142-0.326-5.68-0.0138-11.4-0.0275-17-0.0412-1.13-0.00273-2.26-0.00546-3.42-0.00827-18.3-0.0441-36.7-0.0847-55-0.124-18.8-0.0404-37.6-0.0845-56.4-0.132-11.6-0.0293-23.2-0.0557-34.8-0.0783-7.95-0.0158-15.9-0.0352-23.8-0.0575-4.59-0.0128-9.18-0.0239-13.8-0.0308-4.2-0.00628-8.39-0.0171-12.6-0.0316-1.52-0.00446-3.05-0.0072-4.57-0.00813-2.06-0.00149-4.12-0.00962-6.18-0.0182-1.15-0.00266-2.3-0.00532-3.48-0.00805-2.55-0.131-2.55-0.131-3.55-1.13-1.37-7.68-1.14-15.4-1.13-23.2-0.00136-1.54-0.00314-3.07-0.00531-4.61-0.00454-4.16-0.0028-8.32 3.79e-4 -12.5 0.00254-4.38 1.8e-4 -8.75-0.00139-13.1-0.00182-7.36 5.73e-4 -14.7 0.00534-22.1 0.00542-8.46 0.0037-16.9-0.00183-25.4-0.00457-7.3-0.00516-14.6-0.00256-21.9 0.00155-4.34 0.00181-8.69-0.00154-13-0.0202-31-0.0202-31 0.457-42.8 0.022-0.742 0.0439-1.48 0.0666-2.25 0.137-2.59 0.266-4.64 1.71-6.84 2.89-2.02 5.32-1.7 8.81-1.7z" fill="#000100"/>
<path transform="translate(862 171)" d="m0 0c2.25 1.08 4.5 2.02 6.81 2.95 6.08 2.68 11.5 6.5 17.1 10.2 1.44 0.955 2.9 1.89 4.36 2.82 4.27 2.75 7.8 5.52 11.3 9.26 1.46 1.44 2.91 2.88 4.38 4.31 17.6 17.7 32.1 39.6 39.1 63.6 0.2 0.645 0.4 1.29 0.605 1.96 4.02 13.6 5.37 26.6 5.23 40.6-0.0237 2.6-0.0205 5.2-0.0139 7.8-0.0208 12.1-0.465 24.1-4.32 35.7-0.201 0.631-0.402 1.26-0.608 1.91-1.93 5.98-4.23 11.8-6.7 17.5-0.397 0.924-0.793 1.85-1.2 2.8-2.72 6.24-5.66 12.1-9.49 17.8-0.391 0.633-0.781 1.27-1.18 1.92-0.876 1.4-1.84 2.75-2.82 4.08h-2c-0.247 0.722-0.495 1.44-0.75 2.19-1.37 3.09-2.97 5.32-5.25 7.81h-2c-0.66 1.32-1.32 2.64-2 4h-2c-0.263 0.585-0.526 1.17-0.797 1.77-6.8 12.6-24.3 21.2-36.2 28.2-0.723 0.433-1.45 0.866-2.19 1.31-3.19 1.87-6.35 3.39-9.81 4.69-1.57 0.692-1.57 0.692-3.17 1.4-29.7 12.8-67.8 13.5-98.8 4.6-2.35-0.961-4.68-1.96-7-3-1.23-0.517-2.46-1.03-3.69-1.54-20.9-8.83-43-21.6-57.6-39.4-1.95-2.34-4.05-4.52-6.14-6.73-26.1-29.1-33.3-69.1-31.4-107 0.569-8.74 2.08-17.1 4.25-25.6 0.197-0.77 0.394-1.54 0.596-2.33 1.25-4.55 2.92-8.6 5.11-12.8 0.996-1.86 0.996-1.86 1.91-4.25 1.49-3.72 3.32-7.26 5.13-10.8 0.559-1.11 0.559-1.11 1.13-2.24 0.914-1.82 1.83-3.63 2.75-5.44h2c0.25-0.712 0.5-1.42 0.758-2.16 1.37-3.14 3.07-5.6 5.12-8.34 0.678-0.918 1.36-1.84 2.05-2.78 0.683-0.897 1.37-1.79 2.07-2.72 1.06-1.41 1.06-1.41 2.13-2.84 0.616-0.712 1.23-1.42 1.87-2.16h2c0.34-1.08 0.34-1.08 0.688-2.19 2.59-5.54 7.66-9.02 12.3-12.8 0.949-0.804 1.9-1.61 2.88-2.44 1.04-0.858 2.08-1.71 3.12-2.56 0.538-0.44 1.08-0.879 1.63-1.33 40.3-31.6 102-40.3 149-17.9z" fill="#000100"/>
<path transform="translate(1126 267)" d="m0 0c0.823 5.45e-4 1.65 0.00109 2.49 0.00165 0.944-0.00419 1.89-0.00839 2.86-0.0127 1.04 0.00562 2.08 0.0112 3.15 0.017 1.09-0.0019 2.18-0.0038 3.31-0.00575 3.62-0.00372 7.24 0.00701 10.9 0.0182 2.51 0.00119 5.01 0.00165 7.52 0.00139 5.26 0.00157 10.5 0.00963 15.8 0.0233 6.08 0.0157 12.2 0.021 18.3 0.0203 5.85-6.09e-4 11.7 0.0046 17.5 0.0128 2.49 0.00319 4.98 0.00516 7.47 0.00589 3.47 0.00216 6.95 0.0109 10.4 0.0216 1.04-4.53e-4 2.08-9.06e-4 3.15-0.00137 0.941 0.00426 1.88 0.00853 2.85 0.0129 1.23 0.00251 1.23 0.00251 2.49 0.00508 1.87 0.129 1.87 0.129 2.87 1.13 0.123 1.59 0.178 3.19 0.205 4.78 0.0299 1.54 0.0299 1.54 0.0604 3.12 0.0167 1.14 0.0334 2.28 0.0506 3.45 0.0208 1.2 0.0416 2.39 0.063 3.63 0.0435 2.57 0.0845 5.15 0.123 7.72 0.0571 3.75 0.123 7.5 0.191 11.2 0.688 40.7 0.284 81.4-0.157 122-0.0621 5.78-0.121 11.6-0.181 17.3-0.116 11.2-0.235 22.4-0.355 33.6-13.8 0.0234-27.7 0.0409-41.5 0.0518-6.42 0.00522-12.8 0.0123-19.3 0.0236-6.2 0.0109-12.4 0.0168-18.6 0.0194-2.36 0.00185-4.73 0.00545-7.09 0.0109-3.31 0.00727-6.63 0.00826-9.94 0.0078-0.975 0.0036-1.95 0.00719-2.96 0.0109-13.6-0.0205-13.6-0.0205-15.7-2.12-0.102-2.63-0.139-5.23-0.134-7.85-0.00227-0.832-0.00453-1.66-0.00687-2.52-0.00637-2.81-0.00551-5.62-0.00469-8.43-0.00299-2.01-0.00639-4.01-0.0102-6.02-0.00886-5.47-0.0112-10.9-0.0118-16.4-9.47e-4 -4.56-0.00462-9.11-0.00817-13.7-0.00815-10.7-0.0106-21.5-0.00987-32.2 6.01e-4 -11.1-0.00995-22.2-0.0257-33.3-0.0131-9.51-0.0184-19-0.0178-28.5 2.56e-4 -5.69-0.00263-11.4-0.0132-17.1-0.00964-5.35-0.00979-10.7-0.00248-16 0.00105-1.97-0.00135-3.94-0.00736-5.9-0.00765-2.68-0.00312-5.35 0.00463-8.03-0.00514-0.787-0.0103-1.57-0.0156-2.39 0.0471-7.32 0.0471-7.32 4.26-7.84z" fill="#000100"/>
<path transform="translate(456 266)" d="m0 0c2.71-0.0216 5.42-0.0363 8.12-0.0496 0.816-0.00782 1.63-0.0156 2.47-0.0237 4.67-0.0147 9.09 0.238 13.7 1.1 1.78 1.78 1.13 4.15 1.13 6.52-0.00223 0.798-0.00446 1.6-0.00676 2.42 0.00234 1.26 0.00234 1.26 0.00473 2.55 0.00401 2.84 8.19e-4 5.68-0.00232 8.52 0.00135 2.03 0.00313 4.06 0.00531 6.08 0.00458 5.52 0.00278 11-3.79e-4 16.6-0.00252 5.77-1.86e-4 11.5 0.00139 17.3 0.00182 9.69-5.85e-4 19.4-0.00534 29.1-0.00544 11.2-0.00368 22.4 0.00183 33.7 0.00453 9.61 0.00518 19.2 0.00256 28.8-0.00156 5.75-0.00176 11.5 0.00154 17.2 0.00288 5.4 9.05e-4 10.8-0.00489 16.2-0.00133 1.99-9.33e-4 3.98 0.00126 5.97 0.00271 2.7-6.67e-4 5.41-0.00568 8.11 0.00335 1.2 0.00335 1.2 0.00676 2.42-0.0196 5.4-0.0196 5.4-1.13 6.52-1.44 0.0999-2.88 0.131-4.31 0.134-0.931 0.00426-1.86 0.00853-2.82 0.0129-1.03-4.53e-4 -2.06-9.06e-4 -3.12-0.00137-1.62 0.00504-1.62 0.00504-3.27 0.0102-3.58 0.00954-7.17 0.0115-10.8 0.0125-2.48 0.00321-4.96 0.00657-7.44 0.0101-5.21 6e-3 -10.4 0.00784-15.6 0.00725-5.36-5.34e-4 -10.7 0.00651-16.1 0.0205-6.45 0.0166-12.9 0.0235-19.4 0.0229-2.46 0.00118-4.93 0.00562-7.39 0.0133-3.44 0.00976-6.89 0.00694-10.3 8.95e-4 -1.54 0.00843-1.54 0.00843-3.11 0.017-1.4-0.00629-1.4-0.00629-2.84-0.0127-0.814 5.45e-4 -1.63 0.00109-2.47 0.00165-2.1-0.249-2.1-0.249-5.1-2.25-0.299-2.73-0.4-5.24-0.374-7.97-0.00397-0.833-0.00795-1.67-0.012-2.53-0.00967-2.81 0.00222-5.62 0.014-8.42-0.00243-2.01-0.00614-4.01-0.0111-6.02-0.00943-5.46 3.63e-5 -10.9 0.0133-16.4 0.0113-5.71 0.00721-11.4 0.00525-17.1-8.84e-4 -9.58 0.0102-19.2 0.0286-28.8 0.0212-11.1 0.0247-22.2 0.0184-33.3-0.00569-10.7-5.6e-5 -21.3 0.0112-32 0.00466-4.54 0.00552-9.08 0.00341-13.6-0.00188-5.34 0.00618-10.7 0.0221-16 0.00426-1.97 0.00508-3.93 0.00231-5.9-0.0032-2.67 0.00581-5.35 0.0181-8.02-0.00378-0.787-0.00756-1.57-0.0115-2.38 0.0438-5.36 0.0438-5.36 2.27-7.59 2.6-0.218 5.11-0.311 7.71-0.319 0.797-0.01 1.59-0.0201 2.42-0.0304 2.65-0.031 5.31-0.0479 7.96-0.0648 1.85-0.0187 3.71-0.0383 5.56-0.0587 4.91-0.0515 9.82-0.091 14.7-0.128 4.92-0.0395 9.83-0.0911 14.8-0.141 9.77-0.0964 19.5-0.189 29.3-0.243 1.76-0.0105 3.51-0.0231 5.27-0.0375z" fill="#000100"/>
</svg>
